<?xml version="1.0" encoding="UTF-8"?>
<svg id="Layer_3" data-name="Layer 3" xmlns="http://www.w3.org/2000/svg" viewBox="0 0 1080 1080">
  <defs>
    <style>
      .cls-1 {
        stroke-width: 0px;
      }
    </style>
  </defs>
  <path class="cls-1" d="m803.48,525.4c-1.7-9.14-4.39-17.92-7.65-26.42-2.57-6.64-5.46-13.1-8.73-19.44-.18-.24-.77-.6-.92-.66-1.13-.5-3.43-1.17-5.79-1.73l21.69-82.82.04-.17-.07-.16c-.49-1.09-48.87-109.55-63.86-132.04s-137.3-133.1-138.53-134.22l-.17-.16-.23.03c-6.14.88-150.51,21.69-155.94,24.94-.24.14-.9-.03-2.04-.92-10.89-8.47-40.76-57.33-41.7-70.21.64-3.17.48-3.22.09-3.32-.52-.14-.65.3-.91,1.18-.16.55-.22,1.22-.18,2.01-2.38,11.62-13.11,58.02-19.19,84.08l-15.54-3.11-33.35-52.25,3.3,66.08-138.52-40.04,5.54,40.98.16.12c1.51,1.2,36.91,29.28,41.29,30.38,1.6.4,5.45,6.36,9.53,12.67,6.32,9.76,14.18,21.92,20.65,25.15,9.69,4.84,21.28,15.07,23.36,16.93-4.79,6.8-73.67,105.26-80.95,144.78-7,38.02-14.07,87.04-14.07,110.87v2.66l.97-2.48c.12-.3,11.87-30.19,34.96-63.54,14.81-21.39,36.52-47.26,64.65-66.47l-8.9,54.4,1.32,1.13-5.98,16.09,9.86,8.01c-2.38,11.31-8.02,38.1-8.02,38.1,0,0-.23,4.4-.35,8.06l-15.17-6.24-5.81,109.87,18.3,8.29c.64,5.91,1.3,11.81,2,17.7,2.92,24.65,6.24,49.25,10.21,73.79,1.99,12.27,4.15,24.52,6.58,36.75,2.45,12.23,5.13,24.43,8.45,36.58,1.68,6.08,3.5,12.14,5.67,18.18,1.09,3.02,2.29,6.04,3.63,9.05,1.35,3.01,2.89,6.02,4.84,9.03.46.75,1.06,1.51,1.59,2.26.56.75,1.23,1.5,1.87,2.25l1.12,1.11.58.55.68.54.68.53c.21.16.5.39.64.47l1.05.66,4.19,2.64,4.36,2.37c5.88,3.02,12.05,5.47,18.36,7.3,12.66,3.65,25.73,4.71,38.33,4.89,3.16.06,6.29.05,9.38.05h4.62s1.15,0,1.15,0l1.29-.02c.87,0,1.71-.05,2.56-.1,6.74-.41,13.09-1.56,19.34-2.96,10.92-2.48,21.47-5.76,31.85-9.42l4.81,14.19,22.43,66.21,3.17,9.35s13.14,32.33,12.93,30.87c5.88,12.75,11.37,20.39,6.66-1.79-2.46-13.18-7.33-31.51-7.33-31.51l-3.69-10.89-3.03-8.97c.6-1.24.2-2.97-1.19-3.52l-18.17-53.73-4.91-14.52c9.29-3.57,18.45-7.42,27.5-11.52,11.4-5.17,22.62-10.71,33.64-16.68,11.01-5.98,21.83-12.37,32.31-19.42,5.23-3.54,10.39-7.23,15.39-11.2,5-3.97,9.87-8.2,14.44-12.93,2.27-2.38,4.48-4.9,6.53-7.64,2.04-2.75,3.96-5.72,5.48-9.14l.89-2.02c.28-.6.6-1.26.93-1.92l2.07-4.03,4.32-8.21,4.3-8.31,2.04-4.05,1.34-2.71,2.62-5.47s.83-2.06,2.01-5.17c1.17-3.11,2.67-7.27,3.97-11.49,1.31-4.21,2.39-8.5,2.97-11.7.59-3.2.72-5.29.59-4.91.3-3.76.04-7.43-1.01-10.22-.51-1.39-1.22-2.52-1.92-3.26-.72-.75-1.39-1.1-1.82-1.16-.42-.03-.66.17-.69.62-.04.46.11,1.14.2,2.12.22,1.94.1,5.19-1.46,10.29-1.96,5.96-5.37,13.03-8.23,18.57-1.43,2.77-2.73,5.17-3.66,6.88-.94,1.71-1.49,2.72-1.49,2.72-.83,1.8-1.69,3.59-2.56,5.39l-1.31,2.69-2.82,5.63c-2.82,5.55-5.76,11.05-8.7,16.68-.74,1.41-1.47,2.83-2.21,4.33-.37.76-.74,1.51-1.13,2.41l-.29.67-.19.43-.38.85c-1.08,2.29-2.61,4.6-4.35,6.84-3.51,4.47-7.76,8.69-12.31,12.64-4.54,3.97-9.4,7.69-14.38,11.27-10.01,7.12-20.56,13.63-31.38,19.71-10.82,6.07-21.91,11.73-33.18,17-11.27,5.26-22.72,10.14-34.32,14.56-11.6,4.38-23.37,8.35-35.22,11.36-5.92,1.48-11.88,2.74-17.72,3.43-.73.09-1.46.17-2.18.23-.72.07-1.44.13-2.15.16-.71.04-1.42.08-2.11.08l-1.04.02h-1.19s-9.43,0-9.43,0c-12.41-.02-24.5-.7-36.01-3.54-5.75-1.38-11.32-3.35-16.61-5.87-.66-.31-1.34-.6-1.99-.93l-1.93-1.05c-1.28-.71-2.61-1.34-3.82-2.17l-3.7-2.33c-.3-.28-.62-.44-.99-.86-.18-.19-.36-.32-.54-.55l-.56-.66c-1.5-1.83-2.93-4.29-4.19-6.85-1.27-2.58-2.43-5.32-3.51-8.11-2.13-5.63-3.99-11.47-5.65-17.41-3.34-11.88-6.07-24.04-8.55-36.27-2.47-12.24-4.65-24.56-6.66-36.92-4.02-24.72-7.38-49.59-10.33-74.5-.4-3.43-.8-6.85-1.18-10.28l12.67,5.74,1.22,55.02,15.76,16.7c.55.86,1.17,1.54,1.9,2.01l.11.12h.09c3.01,1.84,7.31,2.58,12.25,2.58,18.53,0,45.99-10.26,47.45-10.81l.32-.12v-21.09l-.67.24c-.43.15-42.7,14.97-53.58,11.16-2.88-1.01-5.09-3.16-6.77-6.13l-.95-41.91h.03s.62.29.62.29l9.89-77.97,60.58-7.32-10.22,90.05,108.28-8.1.46-.04v-24.02l-.41.04,6.65-38.6h-20.18l-7.8,40.52-67.4,6.08,13.62-66.95,88.26-28.66,125.36-6.9h.27s6.54-11.58,6.54-11.58c-3.62,11.86-6.26,20.09-6.34,20.36l-.03.1v.1c.32,3.63,7.74,89.03,20.68,104.12l.85.99.03-1.3c.02-.94,2.64-94.27,44.1-118.11l46.38-43.57,26.13,10.05c0,.15.05.25.13.4,3.04,5.88,5.77,11.99,8.17,18.18,2.99,7.79,5.42,15.77,6.96,23.8,1.53,8.01,2.06,16.12.95,23.72-.56,3.79-1.57,7.43-3.13,10.73-.35.85-.85,1.61-1.25,2.42l-.32.6-.41.69-.83,1.39-3.33,5.57c-4.43,7.42-8.87,14.79-13.42,22.07-5.95,9.51-12.05,18.92-18.49,27.99-5.39-5.41-11.16-11.2-11.31-11.35-.09-.01-.44.14-.53.19-4.93,2.65-7.43,6.53-8.2,8.26-.14.28-.12.3-.07.36.16.16,6.97,6.97,12.66,12.66-1.03,1.34-2.06,2.68-3.11,4-4.42,5.51-9.04,10.84-13.97,15.59-7.99-8.01-18.75-18.8-18.99-19.04-.1-.03-.49.09-.58.13-5.32,2.26-7.59,6.38-8.19,8.27-.12.31-.09.33-.03.4.23.23,10.35,10.35,18.17,18.17-.47.32-.95.64-1.43.91-.73.43-1.46.91-2.2,1.23,0,0-.39.23-1.06.62-.34.23-.74.37-1.21.6-.46.2-1,.53-1.56.67-.28.1-.57.2-.88.31-.15.06-.31.11-.47.17-.21.05-.42.1-.63.15-.85.2-1.75.42-2.68.64-.93.24-1.89.42-2.87.6-.98.17-1.97.4-2.96.54-3.97.64-7.93.89-10.79.96-2.87.04-4.64-.09-4.31.03-3.27-.09-6.24-.38-8.56-.66-2.31-.27-4-.53-4.72-.28-.8.16-.8,1.09.93,2.61,1.71,1.5,5.14,3.53,10.92,5.08,6.78,2.06,15.42,2.53,22.17,2.14.18,0,.35-.03.53-.04,0,.13.05.23.11.38l8.11,18.97,22.39,52.36,3.88,9.08s15.61,31.22,15.28,29.77c6.85,12.25,12.91,19.45,6.5-2.3-3.47-12.95-9.74-30.85-9.74-30.85l-4.52-10.58-22.35-52.38-7.21-16.88c.93-.46,1.89-.9,2.77-1.4.99-.59,2.01-1.16,2.96-1.78l2.52-1.73.08.08s9.62,6.68,9.47,6.15c4.31,2.22,8.36,2.38,4.97-4.76-1.52-3.84-4.35-8.33-5.1-9.48,1.45-1.41,2.87-2.85,4.25-4.3,3.16-3.33,6.13-6.77,8.98-10.27,1.43-1.77,2.84-3.54,4.23-5.33,2.19,1.32,6.09,3.62,6.04,3.3,3.49,1.4,7,1.02,4.94-4.79-.98-3.66-3.39-7.87-3.39-7.87,0,0-.13-.13-.36-.36,6.77-9.42,13.07-19.09,19.2-28.82,4.71-7.51,9.29-15.08,13.81-22.64l3.39-5.67,1.69-2.83c.59-1.03,1.21-2.22,1.8-3.32,2.26-4.57,3.71-9.42,4.52-14.26,1.61-9.71.92-19.3-.77-28.41Zm-485.25,92.56l-38.91-18.24,2.51-66.89,43.86,12.8-7.46,72.33Zm13.54-86.57l-34.04-14c2.18-4.05,3.92-8.37,3.92-8.37,0,0,4.13-19.51,6.87-32.44l29.95,24.33-6.71,30.48Zm-36.8-88.04l24.56-66.13c7.16-3.72,14.65-6.97,22.49-9.58.5-.13,49.92-12.6,54.5-1.57-1.87,4.39-34.33,81.12-46.97,127.28l.37-2.89-54.95-47.1Zm353.86,53.22l-140.44,13.2h-.06s-80.08,27.75-80.08,27.75l-4.39-19.28,75.68-35.11-12.86-15.8-80.92,50.2-.21.13-2.8,24.65v-2.98l-60.47,11.37.7-5.56,3.61-28.44c10.13-15.01,92.81-136.16,120.8-137.16l.18-.04c.26-.11,26-11.18,54.71-20.13,26.43-8.23,60.82-16.31,74.58-8.06.69.55,69.04,55.23,69.04,74.24,0,11.02-9.2,44.44-17.07,71.01Z"/>
  <path class="cls-1" d="m510.72,722.85c.84-1.43,1.59-2.72,2.15-3.9.99-2.47,1.46-4.26,1.26-5.06-.22-.82-1.05-.62-2.74.76-.42.35-.88.77-1.4,1.27-.26.25-.52.53-.83.8-.31.27-.64.55-1,.86-.69.61-1.45,1.29-2.26,2.06-.85.74-1.85,1.49-2.88,2.35-2.53,1.93-5.46,3.85-8.44,5.6-2.99,1.73-6.06,3.28-8.83,4.53-1.35.67-2.7,1.17-3.87,1.67-1.18.48-2.21.95-3.11,1.25-1.77.66-2.83,1.05-2.83,1.05-3.33,1.49-6.75,2.83-10.23,4.06-17.91,6.26-37.05,9.7-56.26,11.65-6.71.66-13.46,1.14-20.17,1.37-.28.06-.82.43-.93.53-3.1,2.77-3.74,5.21-3.23,7.23.54,2.02,2.3,3.56,3.73,4.39.42.29.53.29.84.28,7.04-.24,14.02-.74,20.99-1.43,19.94-2.05,39.85-5.58,59.16-12.34,1.6-.59,3.22-1.16,4.81-1.78l4.77-1.95s.51-.25,1.39-.73c.88-.47,2.14-1.14,3.64-1.94,1.49-.84,3.19-1.88,5.01-2.96,1.79-1.16,3.68-2.41,5.52-3.72,7.39-5.27,13.35-12,12.61-11.62.57-.74,1.12-1.47,1.66-2.17.53-.7,1.04-1.39,1.44-2.12Z"/>
</svg>