<?xml version="1.0" encoding="UTF-8"?>
<svg id="Layer_3" data-name="Layer 3" xmlns="http://www.w3.org/2000/svg" viewBox="0 0 1377.91 1080">
  <defs>
    <style>
      .cls-1 {
        fill: none;
      }

      .cls-1, .cls-2, .cls-3 {
        stroke-width: 0px;
      }

      .cls-2 {
        fill: #221f20;
      }

      .cls-3 {
        fill: #fff;
      }
    </style>
  </defs>
  <path class="cls-1" d="m600.15,297.42c2.04-1.41,4.12-2.83,6.24-4.26.87-7.43,3.21-14.57,6.47-21.26-.42-.79-.81-1.6-1.18-2.41-5.93-1.22-11.77-2.82-17.51-4.8,5.79.94,11.49,2.24,17.1,3.89-1.18-2.67-2.27-5.41-3.82-7.85-2.03-3.44-5.42-6-7.74-9.25-.34-.46-.65-.94-.93-1.44l-.33-.57c-3.34-2.13-5.96-5.32-7.34-9.07,3.27,1.34,6.06,3.63,8.06,6.5,2.12-.57,4.27-1.07,6.43-1.43-8.13-4.02-15.47-9.7-21.38-16.58,8.41,3.88,16.02,9.53,22.18,16.45,1.28-.19,2.57-.31,3.86-.35l-17.43-21.14-40.89-49.57,47.8,123.43c.14-.1.28-.19.43-.29Zm7.29-36.7c-5.72-1.74-11.17-4.12-16.34-7.12,5.72,1.74,11.17,4.12,16.34,7.12Z"/>
  <path class="cls-1" d="m662.27,330.35c1.87-6.62,3.77-13.23,5.71-19.84,1.6-5.49,3.74-12.7,5.66-19.03-8.82,7.21-17.93,14.37-27.09,21.49,7.72,1.9,13.66,8.88,14.05,16.91-8-1.22-14.37-7.91-15.41-15.85-8.84,6.87-17.7,13.73-26.34,20.58-2.04,1.67-4.08,3.31-6.14,4.9,15.74-1.24,32.52-3.4,48.3-4.73.41-1.48.83-2.95,1.26-4.43Z"/>
  <path class="cls-1" d="m672.66,194.82c6.47,10.63,12.13,21.71,17.54,32.89.24,0,.48,0,.72-.01-.7-11.68.49-23.46,3.54-34.76.87,11.65-.16,23.42-3.02,34.75,2.86-.07,5.73-.11,8.59-.13,1.36-5.09,4.11-9.77,7.93-13.41-.74,4.88-2.76,9.52-5.78,13.4.98,0,1.96-.02,2.93-.02l.19,2.81c.35,5.29.63,10.59.85,15.89,1.54-6.03,3.82-11.86,6.8-17.34-.78,8.46-3.01,16.76-6.55,24.47.05,1.57.09,3.14.13,4.72,5.1.24,10.19.55,15.28,1,2.12-2.89,4.29-5.77,6.56-8.56-17.12-39.38-43.92-101.54-61.74-142.84,1.62,25.33,3.67,57.55,5.53,87.17l.51-.03Zm46.02,45.57c.28,6.25-1.56,12.5-5.23,17.57-.3-6.25,1.58-12.5,5.23-17.57Zm-32.86-52.91c2.71,7.46,3.38,15.6,1.98,23.41-2.7-7.46-3.4-15.6-1.98-23.41Zm-4.68,10.36c-3.79-6.2-5.71-13.46-5.51-20.72,3.78,6.21,5.72,13.46,5.51,20.72Z"/>
  <path class="cls-1" d="m622.66,489.06c4.23-2.37,8.26-5.06,10.37-9.46,7.25-12.5,7.04-27.77-1.9-39.27l-23.17,13.97-.53.32c-9.9.99-19.79,2.01-29.7.36-.48-.13-1.43-.35-1.91-.48-2.91-1.02-5.64-1.65-8.13-3.78-1.29-1.24-1.76-3.21-.34-4.75,4.94-5.02,25.93-26.87,39.02-40.34,4.73-4.87,8.43-8.64,9.95-10.12,1.73-3.17,3.57-6.45,5.35-9.76,2.9-5.36,5.69-10.8,7.75-16.04-.13-.06-.32-.12-.55-.15-1-.19-2.41-.13-3.64.04-.59.38-1.2.77-1.82,1.17-1.35,4.37-2.75,8.72-4.19,13.05l-.18.53-.62.03c-2.91.13-5.8.22-8.7.31.06,1.81.18,5.05.17,5.25-.24.2-3.23,2.45-4.57,3.47.09,3.77.19,7.58.21,11.35-5.9-.56-11.83-1.04-17.73-1.64l-1.69,7.74-.38,1.79c-3.6-.49-7.22-1.03-10.82-1.57-1.59,5.89-3.58,13.04-5.16,18.58l-1.72-.49c-4.27-1.22-12.39-3.56-17.49-5.07-.11,4.36-.28,8.73-.4,13.08-5.85-1.98-13.63-4.46-19.73-6.63-.56.35-1.1.7-1.63,1.04l-.73-.4-14.79-8.12-22.22-12.21-.92-.5.54-.87,9.47-15.19.11-.18c.1-.09,27.99-16.15,28.12-16.25l28-16.06h.01s.06-.04.16-.09l12.54-7.68c.79-5.39,1.71-10.76,2.78-16.09-1.34-3.05-1.74-6.26-2.38-9.47-1.25-5.7-2.37-17.83-7.57-20.68-4.92-1.7-9.61-4.9-14.38-6.61-2.97-.97-6.16-1.2-9.28-.87-6.38.74-12.32,3.66-17.66,7.17-19.88,6.8-37.41,19.96-49.58,37.05-18.5,25.62-30.25,55.64-37.57,86.26-5.23,22.93-3.6,47.05,1.52,69.89,1.84,7.91,4.11,16.55,7.46,23.62,8.74,1.04,17.93-.24,26.76-.91,41.95-4.42,83.94-11.3,124.49-23.02,9.9-3.02,19.97-6.38,29-11.32Z"/>
  <path class="cls-1" d="m529.89,427.47c-1.93-.49-3.86-1-5.77-1.53l4.51,2.35c.41-.26.83-.54,1.26-.82Z"/>
  <path class="cls-1" d="m888.99,473.45c-.98-4.08-1.95-8.15-3.39-12.05-2.52-6.52-5.8-12.7-9.2-18.87-16.52-29.08-35.6-56.71-54.93-84-.85-1.2-1.71-2.41-2.56-3.61h.03c-7.12-6.24-14.01-12.73-20.77-19.36,3.26,5.74,6.76,12.06,9.71,17.91-6.54-9.37-12.85-19.57-18.73-29.39,10.36,9.96,20.72,20.08,30.39,30.72l2.09-.39c.59-.09,1.17-.16,1.75-.19,9.3-.64,18.07,5.17,25.44,10.07,15.47,11.05,28.76,24.61,41.52,38.56,3.66,4.05,7.26,8.14,10.79,12.3-.44-.75-.89-1.48-1.31-2.21-2.56-4.15-5.25-8.24-7.99-12.29-16.56-24.29-34.3-47.78-52.15-71.14-22.24-15.36-68.68-47.94-95.9-66.98.2.45.4.9.6,1.35,3.32,10.63,6.49,21.3,9.59,31.97,9.79,2.98,19.25,7,28.18,12-9.65-2.66-19-6.35-27.88-10.97,1.16,3.98,2.31,7.97,3.45,11.96,7.51,3.01,14.52,7.21,20.7,12.43-7.45-2.89-14.41-6.98-20.59-12.04.44,1.54.88,3.07,1.32,4.61,2.42,8.69,4.84,17.39,7.22,26.1,8.52,4.94,16.57,10.69,23.98,17.18-8.29-4.38-16.14-9.54-23.48-15.36,8.78,32.24,16.94,64.66,22.26,97.71,1.23,8.51,2.33,17.16,2.03,25.84,3.63,15.46,7.06,30.92,10.34,46.43,1.35,6.51,2.7,13.02,4.02,19.53,7.56,6.93,19.14,17.58,19.56,17.99,7.81,2.75,16.17,3.92,24.41,3.21,1.09-.1,2.19-.23,3.27-.39-1.85-.35-3.65-1.03-5.31-1.82-9.52-4.87-16.89-12.92-23.49-21.17.79-1.48.92-3.28.97-4.97.09-4.86-.63-9.71-1.37-14.52-3.23-19.23-8.21-38.23-13.5-57.04-.79-2.85-1.6-5.7-2.41-8.55l4.61,7.19c.07.1.13.2.2.3,3.75,5.71,8.25,10.99,12.72,16.18,13.84,15.81,28.58,30.87,43.5,45.68,4.26,2.14,6.94,5.73,9.66,9.37,7.56,10.89,13.02,23,18.32,35.05,4.4,10.26,8.48,20.63,12.31,31.1-2.42-16.2-4.95-32.39-7.59-48.55-3.71-22.35-7.44-44.8-12.4-66.88Zm-141.81-200.51c7.41,4.99,14.05,11.12,19.59,18.13-7.42-4.98-14.04-11.13-19.59-18.13Zm14.06,48.34c6.26,1.6,12.16,4.54,17.2,8.6-6.27-1.59-12.16-4.55-17.2-8.6Zm54.02,15.8c-9.22-6.91-17.59-14.94-24.9-23.85,9.21,6.92,17.59,14.94,24.9,23.85Zm-11.41-23.85c-7.59-5.08-14.42-11.3-20.16-18.41,7.6,5.07,14.41,11.3,20.16,18.41Zm-20.16,23.85c9.21,12.28,17.32,25.38,24.19,39.11-9.22-12.28-17.31-25.38-24.19-39.11Z"/>
  <path class="cls-1" d="m606.8,381.48c-7.62,4.9-15.99,10.28-24.48,15.74-3.85,2.48-7.74,4.97-11.59,7.45-8.14,5.23-16.14,10.37-23.45,15.06-6.13,3.93-11.78,7.55-16.61,10.65,5.34,1.2,12.18,2.8,17.43,4.1-.12-4.1-.28-8.19-.37-12.29l-.04-1.83c5.16,1.26,13.69,3.37,19.5,4.85,1.29-5.22,3.1-11.98,4.37-16.85l.45-1.69c3.54.5,7.1.99,10.65,1.53l1.72-7.59.38-1.69,1.71.18c5.21.54,10.41,1.2,15.61,1.81.05-3.02.13-6.04.19-9.06.27-.18,3.49-2.39,4.84-3.32.05-1.74.19-5.68.2-6.26,3.51.11,7.03.21,10.54.37,1.62-3.83,3.25-7.65,4.93-11.46-4.7,3.03-10.12,6.52-15.98,10.3Z"/>
  <path class="cls-2" d="m915.32,606.84c-3.19-22.41-6.56-44.78-10.14-67.13-3.7-22.48-7.25-44.92-12.33-67.17-1.03-4.2-2.05-8.43-3.57-12.52-7.09-17.25-17.41-32.89-27.28-48.58-11.79-18.23-24.08-36.09-36.71-53.74,3.29.09,6.63,1.21,9.65,2.55,4.13,1.84,8.08,4.27,11.88,6.9,22.43,16.29,41.27,37.31,59.08,58.46.17.2.34.41.51.61l3.5,4.27-.84-5.37c-.04-.28-.1-.55-.16-.81h-.01c-.27-1.19-.71-2.13-1.14-3.11-3.8-7.82-8.83-14.92-13.67-22.09-5.58-8.1-11.35-16.05-17.17-23.96-11.68-15.79-23.58-31.39-35.7-46.84-23.87-16.38-69.8-47.24-97.54-66.01-21.06-47.37-54.34-122.34-78.18-175.69-3.24-7.26-6.31-14.12-9.15-20.46.55,6.87,1.14,14.36,1.77,22.3,3.64,45.72,8.44,106.37,12.06,150.42-1.83-1.11-3.7-2.14-5.57-3.16-5.72-1.92-11.48-3.6-17.28-5.08-16.15-4-32.58-7.26-49.22-8.21l-62.02-75.2,30.14,77.85c-5.97-.74-12.02-.13-18,.11-7.84.42-15.67.77-23.48.65h-.65c-.27.01-.59.04-.88.08-5.76,1.48-10.59,5.14-15.56,8.17-11.76,7.71-22.93,16.09-34.06,24.67-16.27,13.34-32.14,28.13-43.48,45.99-9.99,15.58-15.58,33.72-20.58,51.36-2.12,9.45-2.64,19.18-3.51,28.77-.57,7.2-1.07,14.41-1.52,21.61-.43,6.75-.83,13.49-1.23,20.24-3.42,55.02-5.6,112.28-6.8,167.56-.18,6.99-.3,13.97-.4,20.96-2.06,49.23,7.28,98.15,19.59,145.41.87,3.39,1.8,6.76,2.74,10.13l.7,2.53c.22.89.53,1.79.91,2.64,2.68,4.76,7.13,8.04,11.34,11.27,2.43,1.78,4.94,3.45,7.5,5.03.39.43.79.78,1.23,1.04l.44-.9c-2.64-1.99-3.5-6.1-4.34-9.28-4.2-19.47-4.9-39.59-5.76-59.45.24-28.87,2.43-58.2,11.36-85.8,1.67-5.04,3.67-10.24,6.21-14.82l.04-.07.03-.05,4.53-9.41c1.73-3.61,4.22-8,6.06-11.56,2.09-3.47,4.46-7.8,6.75-11.14,5.34-8.31,11.51-16.35,18.88-22.9,3.2-2.66,6.68-5.25,10.59-6.78,28.78-7.89,59.8-4.64,84.12,13.5,3.27,2.42,6.45,5.26,9.21,8.17l5.77,4.38c21.02,16.4,37.44,38.17,50.45,61.3,4.7,8.51,9.1,17.37,12.65,26.37,18.87,38.87,20.24,98.83,19.82,141.95-2.02,24.08-8.14,47.67-11.92,71.55-.19,1.37-.47,3.23-.51,4.63,0,1.6.31,3.22.61,4.84,3.39,14.7,8.09,29.04,12.78,43.37.96,2.9,1.91,5.8,2.85,8.71,1.38-2.63,2.85-5.31,4.22-8.04,1.44-2.85,2.77-5.76,3.79-8.74,5.69-15.42,9.83-31.39,14-47.25,14.69-57.98,26.85-116.5,38.55-175.14,5.34-3.09,10.43-6.55,15.28-10.36,5.73-4.58,11.15-9.48,16.15-14.81-2.5,20.05-8.48,52.94-11.81,72.94-1.77,11.23-4.08,22.31-4.91,33.73.5,10.56,3.04,20.94,5.11,31.18,1.26,5.95,2.79,12.48,4.37,19.02,1.5,6.22,3.04,12.45,4.42,18.16l4.15-16.19c.16-.64.33-1.29.49-1.93,11.77-46.09,23.04-92.27,33.12-138.76,4.54-21.7,9.25-43.54,11.81-65.65,1.27-10.4.33-21.14-.87-31.09-3.19-25.42-7.91-50.42-13-75.4,7.6,7.23,19.18,18.29,19.21,18.3,7.88,2.9,16.38,4.23,24.78,3.62,2.77-.22,5.51-.58,8.25-1.36h.01s.05-.01.07-.02l-.29-1.1c-6.75.99-12.97-3.52-17.99-7.61-5.06-4.31-9.63-9.31-13.67-14.58,1.11-3.1.8-6.44.69-9.66-.21-3.32-.62-6.6-1.1-9.87-2.71-17.15-6.81-34.01-11.27-50.78,2.8,3.76,5.81,7.35,8.85,10.94,13.89,16.15,28.64,31.47,43.62,46.6,3.67,1.62,6.46,5.37,8.85,8.64,12.02,17.99,19.71,38.59,27.52,58.69,3.05,8.14,5.98,16.36,8.71,24.59l3.54-.82c-.01-.1-.03-.21-.05-.31Zm-170.43-321.73c9.43,35.4,17.55,71.15,24.3,107.16-9.44-35.4-17.54-71.15-24.3-107.16Zm45.46,213.64c3.35,16.11,6.05,32.45,8.07,48.78-3.35-16.11-6.05-32.45-8.07-48.78Zm-10.01,93.07c-.88,27.71-3.12,55.38-6.74,82.87.87-27.71,3.13-55.38,6.74-82.87Zm-300.53-55.39c-6.47-.58-12.82-1.84-19.03-3.76,6.47.58,12.82,1.83,19.03,3.76Zm21.63-276.41c-11.68,12.05-23.91,23.7-36.51,34.79,11.68-12.06,23.91-23.71,36.51-34.79Zm139.1,107.88c1.35,6.42.48,14.55-5.29,18.59,4.67-4.76,4.92-12.06,3.44-18.19-1.94-12.98-17.08-10.21-26.31-7.5,9.72-5.09,26.07-7.35,28.17,7.1Zm-26.09-24.44c11.1-2.47,22.47-3.61,33.84-3.34-11.09,2.48-22.48,3.6-33.84,3.34Zm-65.85,174.72c-9.56,2.15-19.33,3.65-29.1,4.46,9.56-2.16,19.33-3.65,29.1-4.46Zm-79.44,5.2c-8.83.67-18.02,1.95-26.76.91-3.35-7.07-5.62-15.71-7.46-23.62-5.12-22.84-6.75-46.96-1.52-69.89,7.32-30.62,19.07-60.64,37.57-86.26,12.17-17.09,29.7-30.25,49.58-37.05,5.34-3.51,11.28-6.43,17.66-7.17,3.12-.33,6.31-.1,9.28.87,4.77,1.71,9.46,4.91,14.38,6.61,5.2,2.85,6.32,14.98,7.57,20.68.64,3.21,1.04,6.42,2.38,9.47-1.07,5.33-1.99,10.7-2.78,16.09l-12.54,7.68c-.1.05-.16.09-.16.09h-.01l-28,16.06c-.13.1-28.02,16.16-28.12,16.25l-.11.18-9.47,15.19-.54.87.92.5,22.22,12.21,14.79,8.12.73.4c.53-.34,1.07-.69,1.63-1.04,6.1,2.17,13.88,4.65,19.73,6.63.12-4.35.29-8.72.4-13.08,5.1,1.51,13.22,3.85,17.49,5.07l1.72.49c1.58-5.54,3.57-12.69,5.16-18.58,3.6.54,7.22,1.08,10.82,1.57l.38-1.79,1.69-7.74c5.9.6,11.83,1.08,17.73,1.64-.02-3.77-.12-7.58-.21-11.35,1.34-1.02,4.33-3.27,4.57-3.47.01-.2-.11-3.44-.17-5.25,2.9-.09,5.79-.18,8.7-.31l.62-.03.18-.53c1.44-4.33,2.84-8.68,4.19-13.05.62-.4,1.23-.79,1.82-1.17,1.23-.17,2.64-.23,3.64-.04.23.03.42.09.55.15-2.06,5.24-4.85,10.68-7.75,16.04-1.78,3.31-3.62,6.59-5.35,9.76-1.52,1.48-5.22,5.25-9.95,10.12-13.09,13.47-34.08,35.32-39.02,40.34-1.42,1.54-.95,3.51.34,4.75,2.49,2.13,5.22,2.76,8.13,3.78.48.13,1.43.35,1.91.48,9.91,1.65,19.8.63,29.7-.36l.53-.32,23.17-13.97c8.94,11.5,9.15,26.77,1.9,39.27-2.11,4.4-6.14,7.09-10.37,9.46-9.03,4.94-19.1,8.3-29,11.32-40.55,11.72-82.54,18.6-124.49,23.02Zm32.28,1.95c-8.06.68-16.13.69-24.19,0,8.06-.69,16.13-.68,24.19,0Zm146.84-234.86c3.34-8.05,7.95-15.56,13.63-22.16-3.33,8.05-7.96,15.55-13.63,22.16Zm-13.45,11.66c3.34-8.05,7.95-15.56,13.63-22.16-3.33,8.05-7.96,15.55-13.63,22.16Zm-13.47,11.08c3.34-8.05,7.95-15.56,13.63-22.16-3.33,8.05-7.96,15.55-13.63,22.16Zm-25.7,6.03c5.18-7.01,11.46-13.19,18.56-18.23-5.17,7.01-11.46,13.18-18.56,18.23Zm-13.42,125.7c8.4-1.37,17-1.38,25.4,0-8.4,1.38-17,1.37-25.4,0Zm14.99-17.01c9.74-.66,19.56.08,29.1,2.16-9.74.65-19.57-.07-29.1-2.16Zm17.22,9.23c-10.24,1.25-20.64,1.1-30.85-.4,10.24-1.24,20.64-1.11,30.85.4Zm3.39-54.54c-3.51-.16-7.03-.26-10.54-.37-.01.58-.15,4.52-.2,6.26-1.35.93-4.57,3.14-4.84,3.32-.06,3.02-.14,6.04-.19,9.06-5.2-.61-10.4-1.27-15.61-1.81l-1.71-.18-.38,1.69-1.72,7.59c-3.55-.54-7.11-1.03-10.65-1.53l-.45,1.69c-1.27,4.87-3.08,11.63-4.37,16.85-5.81-1.48-14.34-3.59-19.5-4.85l.04,1.83c.09,4.1.25,8.19.37,12.29-5.25-1.3-12.09-2.9-17.43-4.1,4.83-3.1,10.48-6.72,16.61-10.65,7.31-4.69,15.31-9.83,23.45-15.06,3.85-2.48,7.74-4.97,11.59-7.45,8.49-5.46,16.86-10.84,24.48-15.74,5.86-3.78,11.28-7.27,15.98-10.3-1.68,3.81-3.31,7.63-4.93,11.46Zm-45.16-29.17c2.33-11.13,5.99-21.95,10.93-32.2-2.32,11.12-6,21.96-10.93,32.2Zm17.53-28.5c-1.87,8.51-5.11,16.7-9.54,24.21,1.88-8.51,5.1-16.71,9.54-24.21Zm-21.02,31.19c-1.88,9.71-5.13,19.14-9.61,27.96,1.89-9.71,5.12-19.14,9.61-27.96Zm-18.29,36.12c2.33-11.13,5.99-21.95,10.93-32.2-2.32,11.12-6,21.96-10.93,32.2Zm-21.02,35.19c-.43.28-.85.56-1.26.82l-4.51-2.35c1.91.53,3.84,1.04,5.77,1.53Zm52.36-108.09c7.37-8.66,15.76-16.41,24.99-23.05-7.35,8.66-15.77,16.41-24.99,23.05Zm-31.34-39.85c9.01,8.04,17.62,16.64,25.67,25.65-9.01-8.04-17.62-16.64-25.67-25.65Zm-39.42,5.59c7.73-.45,15.44-.21,23.12.72-7.73.45-15.44.21-23.12-.72Zm-34.23,34.27c11.01-7.79,22.49-15.06,34.23-21.69-11.02,7.79-22.49,15.06-34.23,21.69Zm5.27-14.2c-6.5,5.28-13.47,10.05-20.74,14.2,6.5-5.28,13.47-10.05,20.74-14.2Zm-4.38-5.22l15.83-20.11.79.62-15.83,20.11-.79-.62Zm-4.57,21.32c-6.28,13.23-13.22,26.23-20.7,38.81,6.28-13.22,13.22-26.22,20.7-38.81Zm-30.21,25.55c4.52-6.1,9.56-11.76,15.1-16.95-4.52,6.11-9.56,11.75-15.1,16.95Zm3.37,6.65c-4.33,16.44-9.35,32.8-14.97,48.85,4.33-16.44,9.35-32.8,14.97-48.85Zm-17.8,26.1c1.98-8.77,4.64-17.45,7.93-25.82-1.98,8.77-4.64,17.45-7.93,25.82Zm162.16,133.32c-7.18,1.74-14.47,2.8-21.85,3.18,7.18-1.74,14.47-2.8,21.85-3.18Zm6.14,9.5c-10.55,3.85-21.4,7.07-32.34,9.61,10.55-3.85,21.4-7.07,32.34-9.61Zm6.3-100.77c13.88-.58,27.8.25,41.52,2.42-13.88.56-27.8-.24-41.52-2.42Zm0-79.82c10.52-11.12,22.21-21.98,33.55-32.32.5-.45,1-.89,1.5-1.34,7.81-6.35,15.78-12.99,23.08-19.97,3.64-3,7.31-5.94,10.99-8.77-10.53,11.13-22.22,21.98-33.56,32.31-11.44,10.23-23.42,20.74-35.56,30.09Zm74.58-36.63c-2.32,11.12-6,21.96-10.93,32.2,2.33-11.13,5.99-21.95,10.93-32.2Zm-5.46,34.88c2.33-11.13,5.99-21.95,10.93-32.2-2.32,11.12-6,21.96-10.93,32.2Zm6,64.76c-1.5,26.4-4.36,52.71-8.59,78.81,1.49-26.4,4.37-52.71,8.59-78.81Zm15.8-12.53c-3.08,32.55-7.51,64.96-13.32,97.13,3.07-32.55,7.53-64.96,13.32-97.13Zm27.61,234.07c-14.15-42.63-26.97-85.69-38.48-129.11,14.13,42.63,26.98,85.69,38.48,129.11Zm0-34.52c-7.43-31.25-13.51-62.82-18.24-94.59,7.42,31.25,13.52,62.81,18.24,94.59Zm-15.8-102.42c1.03-39.17,3.41-78.3,7.18-117.3-1.02,39.17-3.42,78.3-7.18,117.3Zm26.26,118.56c-6.79-36.69-12.21-73.64-16.28-110.73,6.78,36.7,12.22,73.64,16.28,110.73Zm-7.74-243.63c1.37,42.77,1.38,85.59,0,128.36-1.38-42.77-1.37-85.59,0-128.36Zm-27.2,108.57c.71-31.19,2.8-62.34,6.25-93.34-.72,31.19-2.79,62.34-6.25,93.34Zm22.54,124.46c8.14,20.84,15,42.17,20.52,63.85-8.15-20.84-14.99-42.17-20.52-63.85Zm20.52,36.51c4.6,16.78,7.89,33.91,9.8,51.21-4.62-16.78-7.88-33.92-9.8-51.21Zm-4.25-38.75c5.4,13.94,9.53,28.37,12.29,43.06-5.41-13.94-9.52-28.37-12.29-43.06Zm-7.75-95.15c10.06,48.82,18.8,97.91,26.16,147.21-10.08-48.82-18.79-97.91-26.16-147.21Zm26.16,101.41c2.1,8.74,2.87,17.8,2.24,26.77-2.12-8.74-2.86-17.8-2.24-26.77Zm-12.41-111.98c7.07,33.15,12.82,66.58,17.19,100.2-7.09-33.15-12.81-66.58-17.19-100.2Zm3.15-23.64c8.25,34.56,16.68,73.15,23.65,108.02-8.24-34.6-16.7-73.16-23.65-108.02Zm44.81,108.02c1.37,22.46,1.38,45,0,67.46-1.38-22.46-1.37-45,0-67.46Zm-37.79-129.58c13.9,38.61,26.51,77.68,37.79,117.14-13.91-38.61-26.5-77.68-37.79-117.14Zm7.02-30.02c11.58,38.33,21.85,77.05,30.78,116.08-11.59-38.32-21.84-77.05-30.78-116.08Zm-14.04-109.02c6.03,32.17,10.72,64.58,14.04,97.14-6.04-32.17-10.71-64.58-14.04-97.14Zm4.9,89.7c-4.63-24.96-7.89-50.18-9.8-75.49,4.62,24.97,7.9,50.17,9.8,75.49Zm-5.55,41.9c-4.21-35.51-7.03-71.17-8.49-106.9,4.19,35.51,7.04,71.17,8.49,106.9Zm-8.49,46.84c-3.96-49.8-6.53-99.7-7.75-149.64,3.95,49.8,6.54,99.7,7.75,149.64Zm-180.03-223.58c9.48,6.69,18.61,13.98,27.24,21.73-9.48-6.69-18.61-13.98-27.24-21.73Zm-54.93,17.39c15.56-3.65,31.36-6.65,47.16-8.98-15.55,3.65-31.35,6.65-47.16,8.98Zm-27.86,17.39c-10.91,13.46-22.4,26.58-34.32,39.16,10.91-13.47,22.4-26.58,34.32-39.16Zm-41.8,42.55c-1.35,7.74-3.36,15.32-6.05,22.71,1.35-7.74,3.37-15.32,6.05-22.71Zm-2.84,73.7c-1.46,14.33-3.61,28.67-6.42,42.8,1.46-14.33,3.61-28.67,6.42-42.8Zm-6.42-27.74c-1.01,15.27-2.69,30.58-5.03,45.7,1.01-15.27,2.69-30.58,5.03-45.7Zm-5.03,57.52c-1,12.78-2.68,25.59-5.03,38.2,1-12.79,2.68-25.59,5.03-38.2Zm5.03,70.34c-3.98-6.97-7.33-14.23-10.07-21.78,3.98,6.97,7.34,14.23,10.07,21.78Zm-2.55-32.15c3.63,9.43,6.64,19.15,8.97,28.98-3.63-9.43-6.64-19.15-8.97-28.98Zm136.4,48.16c-16.29,1.69-32.75,2.72-49.13,3.07,16.3-1.69,32.75-2.72,49.13-3.07Zm47.16,0c-12.64,4.74-25.59,8.87-38.64,12.31,12.64-4.74,25.59-8.87,38.64-12.31Zm-4.5-14.31c10.13-6.44,21.01-11.69,32.34-15.65-10.14,6.43-21,11.7-32.34,15.65Zm41.28-12.91c-8.62,8.52-18.2,16.06-28.52,22.42,8.62-8.53,18.21-16.05,28.52-22.42Zm9.76,8.05c-9.34,8.5-19.59,15.98-30.55,22.25,9.33-8.5,19.6-15.97,30.55-22.25Zm-3.15-24.41c1.39-12.16,4.18-24.15,8.25-35.68-1.41,12.16-4.17,24.15-8.25,35.68Zm-20.59-136.79c11.1-2.47,22.47-3.61,33.84-3.34-11.09,2.48-22.48,3.6-33.84,3.34Zm-7.49-12.21c8.64-6.85,17.5-13.71,26.34-20.58,1.04,7.94,7.41,14.63,15.41,15.85-.39-8.03-6.33-15.01-14.05-16.91,9.16-7.12,18.27-14.28,27.09-21.49-1.92,6.33-4.06,13.54-5.66,19.03-1.94,6.61-3.84,13.22-5.71,19.84-.43,1.48-.85,2.95-1.26,4.43-15.78,1.33-32.56,3.49-48.3,4.73,2.06-1.59,4.1-3.23,6.14-4.9Zm48.35,79.59c-.37,21.7-2.09,43.37-5.2,64.85.36-21.7,2.11-43.37,5.2-64.85Zm1.62,83.05c12.64,35.2,23.99,70.85,34.01,106.88-12.65-35.19-23.98-70.86-34.01-106.88Zm67.59,197.47c-6.11-18.47-10.89-37.38-14.33-56.53,6.1,18.48,10.9,37.37,14.33,56.53Zm27.71-102.89c.67,20.69.67,41.53,0,62.23-.67-20.7-.67-41.53,0-62.23Zm7.35-10.46c-.08,15.97-.84,32.02-2.26,47.92.08-15.96.84-32.02,2.26-47.92Zm-2.26-48.01c5.64,17.6,9.99,35.62,12.95,53.86-5.65-17.6-9.98-35.62-12.95-53.86Zm27.69,25.2c3.68,18.91,6.02,38.08,6.96,57.32-3.69-18.91-6.01-38.08-6.96-57.32Zm-130.26-450.88c17.82,41.3,44.62,103.46,61.74,142.84-2.27,2.79-4.44,5.67-6.56,8.56-5.09-.45-10.18-.76-15.28-1-.03-1.57-.08-3.14-.13-4.72,3.54-7.71,5.77-16.01,6.55-24.47-2.98,5.47-5.26,11.31-6.8,17.34-.22-5.3-.5-10.6-.85-15.89l-.19-2.81c-.97,0-1.95.01-2.93.02,3.02-3.88,5.04-8.52,5.78-13.4-3.82,3.65-6.57,8.33-7.93,13.41-2.87.02-5.73.07-8.59.13,2.87-11.33,3.89-23.1,3.02-34.75-3.04,11.3-4.24,23.08-3.54,34.76-.24,0-.48,0-.72.01-5.41-11.18-11.07-22.26-17.54-32.89l-.51.03c-1.86-29.62-3.91-61.84-5.53-87.17Zm3.65,132.23c.36,4.43.71,8.68,1.05,12.73-10.13,6.29-21.1,12.91-32.08,19.65l-10.87-13.18c-.46-6.91-1.27-13.8-2.26-20.66,4.01.03,8.02.01,12.04-.07,7.5,3.75,15.52,6.44,23.78,7.91-6.84-3.6-14.16-6.27-21.7-7.96,5.25-.14,10.49-.41,15.71-.88,2.8.38,5.48.68,7.65.81,2.22.59,4.43,1.16,6.68,1.65Zm-77.45-16.06l17.43,21.14c-1.29.05-2.58.17-3.86.35-6.16-6.92-13.77-12.57-22.18-16.45,5.91,6.88,13.24,12.56,21.38,16.58-2.17.36-4.32.86-6.43,1.43-1.99-2.87-4.79-5.17-8.06-6.5,1.38,3.75,3.99,6.94,7.34,9.07l.33.57c.28.5.59.98.93,1.44,2.32,3.25,5.71,5.81,7.74,9.25,1.55,2.44,2.64,5.18,3.82,7.85-5.61-1.65-11.31-2.95-17.1-3.89,5.74,1.98,11.58,3.58,17.51,4.8.37.82.76,1.63,1.18,2.41-3.26,6.69-5.6,13.83-6.47,21.26-2.12,1.43-4.2,2.85-6.24,4.26-.14.1-.28.19-.43.29l-47.8-123.43,40.89,49.57Zm303.85,333.93c-5.3-12.05-10.76-24.16-18.32-35.05-2.72-3.64-5.4-7.23-9.66-9.37-14.92-14.81-29.66-29.87-43.5-45.68-4.47-5.19-8.97-10.47-12.72-16.18-.07-.1-.13-.2-.2-.3l-4.61-7.19c.81,2.85,1.62,5.7,2.41,8.55,5.29,18.81,10.27,37.81,13.5,57.04.74,4.81,1.46,9.66,1.37,14.52-.05,1.69-.18,3.49-.97,4.97,6.6,8.25,13.97,16.3,23.49,21.17,1.66.79,3.46,1.47,5.31,1.82-1.08.16-2.18.29-3.27.39-8.24.71-16.6-.46-24.41-3.21-.42-.41-12-11.06-19.56-17.99-1.32-6.51-2.67-13.02-4.02-19.53-3.28-15.51-6.71-30.97-10.34-46.43.3-8.68-.8-17.33-2.03-25.84-5.33-33.05-13.48-65.47-22.26-97.71,7.33,5.83,15.19,10.99,23.48,15.36-7.41-6.5-15.45-12.25-23.98-17.18-2.38-8.71-4.8-17.41-7.22-26.1-.44-1.54-.88-3.07-1.32-4.61,6.18,5.06,13.14,9.15,20.59,12.04-6.18-5.22-13.2-9.42-20.7-12.43-1.14-3.99-2.3-7.98-3.45-11.96,8.88,4.62,18.23,8.31,27.88,10.97-8.93-5-18.39-9.02-28.18-12-3.1-10.68-6.27-21.34-9.59-31.97-.2-.45-.4-.9-.6-1.35,27.22,19.04,73.66,51.62,95.9,66.98,17.85,23.36,35.59,46.85,52.15,71.14,2.74,4.05,5.43,8.14,7.99,12.29.42.73.87,1.46,1.31,2.21-3.53-4.16-7.13-8.25-10.79-12.3-12.76-13.95-26.05-27.51-41.52-38.56-7.37-4.9-16.14-10.71-25.44-10.07-.58.03-1.16.1-1.75.19l-2.09.39c-9.68-10.64-20.04-20.76-30.39-30.72,5.88,9.82,12.19,20.02,18.73,29.39-2.95-5.85-6.45-12.17-9.71-17.91,6.76,6.62,13.65,13.11,20.77,19.35h-.03c.85,1.21,1.71,2.42,2.56,3.62,19.33,27.29,38.41,54.92,54.93,84,3.4,6.17,6.68,12.35,9.2,18.87,1.44,3.9,2.41,7.97,3.39,12.05,4.96,22.08,8.69,44.53,12.4,66.88,2.64,16.16,5.17,32.35,7.59,48.55-3.83-10.47-7.91-20.84-12.31-31.1Z"/>
  <path class="cls-3" d="m640.23,238.33c7.54,1.68,14.86,4.35,21.7,7.96-8.26-1.47-16.28-4.16-23.78-7.91-4.01.08-8.03.1-12.04.07.99,6.86,1.8,13.74,2.26,20.66l10.87,13.18c10.98-6.73,21.95-13.36,32.08-19.65-.34-4.05-.69-8.3-1.05-12.73-2.25-.49-4.46-1.06-6.68-1.65-2.17-.13-4.85-.43-7.65-.81-5.22.47-10.47.74-15.71.88Zm-10.18,15.27c6.93,1.85,13.48,5.03,19.2,9.35-6.93-1.84-13.47-5.04-19.2-9.35Zm1.33-11.67c8.48,2.63,16.54,6.57,23.8,11.67-8.48-2.62-16.53-6.58-23.8-11.67Z"/>
  <path class="cls-3" d="m672.66,279.41c-3.68,2.83-7.35,5.77-10.99,8.77-7.3,6.98-15.27,13.62-23.08,19.97-.5.45-1,.89-1.5,1.34-11.34,10.34-23.03,21.2-33.55,32.32,12.14-9.35,24.12-19.86,35.56-30.09,11.34-10.33,23.03-21.18,33.56-32.31Z"/>
  <path class="cls-3" d="m638.69,368.31c1.48,6.13,1.23,13.43-3.44,18.19,5.77-4.03,6.64-12.16,5.29-18.59-2.09-14.45-18.45-12.2-28.17-7.1,9.24-2.71,24.38-5.48,26.31,7.5Z"/>
  <path class="cls-3" d="m582.25,319.38c9.22-6.64,17.64-14.39,24.99-23.05-9.23,6.64-17.63,14.39-24.99,23.05Z"/>
  <path class="cls-3" d="m583.61,321.27c-4.93,10.24-8.6,21.07-10.93,32.2,4.92-10.24,8.61-21.08,10.93-32.2Z"/>
  <path class="cls-3" d="m561.84,360.08c-4.93,10.24-8.6,21.07-10.93,32.2,4.92-10.24,8.61-21.08,10.93-32.2Z"/>
  <path class="cls-3" d="m667.2,337.37c4.92-10.24,8.61-21.08,10.93-32.2-4.93,10.24-8.6,21.07-10.93,32.2Z"/>
  <path class="cls-3" d="m672.66,340.05c4.92-10.24,8.61-21.08,10.93-32.2-4.93,10.24-8.6,21.07-10.93,32.2Z"/>
  <path class="cls-3" d="m614.46,343.48c11.36.25,22.75-.86,33.84-3.34-11.37-.26-22.74.87-33.84,3.34Z"/>
  <path class="cls-3" d="m626.34,346.82c11.36.25,22.75-.86,33.84-3.34-11.37-.26-22.74.87-33.84,3.34Z"/>
  <path class="cls-3" d="m569.2,356.16c-4.49,8.81-7.72,18.25-9.61,27.96,4.48-8.82,7.73-18.25,9.61-27.96Z"/>
  <path class="cls-3" d="m580.67,349.18c4.43-7.5,7.67-15.7,9.54-24.21-4.44,7.5-7.66,15.7-9.54,24.21Z"/>
  <path class="cls-3" d="m595.67,319.26c7.1-5.05,13.39-11.22,18.56-18.23-7.11,5.05-13.38,11.23-18.56,18.23Z"/>
  <path class="cls-3" d="m635.01,291.07c-5.68,6.61-10.29,14.11-13.63,22.16,5.68-6.61,10.3-14.11,13.63-22.16Z"/>
  <path class="cls-3" d="m648.48,279.98c-5.68,6.61-10.29,14.11-13.63,22.16,5.68-6.61,10.3-14.11,13.63-22.16Z"/>
  <path class="cls-3" d="m661.93,268.33c-5.68,6.61-10.29,14.11-13.63,22.16,5.68-6.61,10.3-14.11,13.63-22.16Z"/>
  <path class="cls-3" d="m607.65,444.95c-8.4-1.38-17-1.37-25.4,0,8.4,1.37,17,1.38,25.4,0Z"/>
  <path class="cls-3" d="m614.46,437.18c-10.21-1.51-20.6-1.64-30.85-.4,10.21,1.5,20.6,1.65,30.85.4Z"/>
  <path class="cls-3" d="m597.24,427.95c9.54,2.09,19.36,2.81,29.1,2.16-9.54-2.08-19.36-2.82-29.1-2.16Z"/>
  <path class="cls-3" d="m603.54,421.62c13.72,2.18,27.64,2.98,41.52,2.42-13.72-2.17-27.64-2.99-41.52-2.42Z"/>
  <path class="cls-3" d="m646.93,483.61c4.09-11.54,6.85-23.53,8.25-35.68-4.07,11.54-6.86,23.53-8.25,35.68Z"/>
  <path class="cls-3" d="m662,479.04c3.11-21.48,4.83-43.15,5.2-64.85-3.1,21.48-4.84,43.15-5.2,64.85Z"/>
  <path class="cls-3" d="m678.66,404.81c-4.22,26.1-7.1,52.41-8.59,78.81,4.23-26.1,7.09-52.41,8.59-78.81Z"/>
  <path class="cls-3" d="m681.14,489.41c5.8-32.17,10.24-64.59,13.32-97.13-5.79,32.17-10.25,64.59-13.32,97.13Z"/>
  <path class="cls-3" d="m703.83,379.57c-3.45,31-5.54,62.15-6.25,93.34,3.46-31,5.53-62.15,6.25-93.34Z"/>
  <path class="cls-3" d="m713.45,372.11c-3.77,39-6.16,78.13-7.18,117.3,3.76-39,6.17-78.13,7.18-117.3Z"/>
  <path class="cls-3" d="m724.78,364.34c-1.37,42.77-1.38,85.59,0,128.36,1.38-42.77,1.37-85.59,0-128.36Z"/>
  <path class="cls-3" d="m736.4,483.61c-1.21-49.94-3.8-99.84-7.75-149.64,1.22,49.94,3.79,99.84,7.75,149.64Z"/>
  <path class="cls-3" d="m744.89,436.78c-1.45-35.73-4.3-71.39-8.49-106.9,1.47,35.73,4.29,71.39,8.49,106.9Z"/>
  <path class="cls-3" d="m750.44,394.87c-1.89-25.32-5.18-50.53-9.8-75.49,1.91,25.32,5.17,50.53,9.8,75.49Z"/>
  <path class="cls-3" d="m759.58,402.32c-3.31-32.56-8.01-64.98-14.04-97.14,3.32,32.56,7.99,64.98,14.04,97.14Z"/>
  <path class="cls-3" d="m744.89,285.11c6.76,36.01,14.86,71.76,24.3,107.16-6.75-36.01-14.87-71.76-24.3-107.16Z"/>
  <path class="cls-3" d="m790.35,530.27c-8.92-39.03-19.2-77.75-30.78-116.08,8.93,39.03,19.19,77.75,30.78,116.08Z"/>
  <path class="cls-3" d="m752.56,444.21c11.29,39.45,23.89,78.53,37.79,117.14-11.28-39.46-23.9-78.52-37.79-117.14Z"/>
  <path class="cls-3" d="m745.54,465.77c6.95,34.85,15.41,73.42,23.65,108.02-6.97-34.87-15.4-73.45-23.65-108.02Z"/>
  <path class="cls-3" d="m742.39,489.41c4.38,33.61,10.1,67.05,17.19,100.2-4.37-33.62-10.11-67.05-17.19-100.2Z"/>
  <path class="cls-3" d="m728.65,499.98c7.37,49.3,16.08,98.39,26.16,147.21-7.36-49.3-16.09-98.39-26.16-147.21Z"/>
  <path class="cls-3" d="m732.53,607.97c-4.06-37.1-9.5-74.04-16.28-110.73,4.07,37.09,9.49,74.04,16.28,110.73Z"/>
  <path class="cls-3" d="m722.07,591.83c-4.72-31.77-10.82-63.33-18.24-94.59,4.73,31.77,10.81,63.34,18.24,94.59Z"/>
  <path class="cls-3" d="m683.59,497.24c11.51,43.42,24.34,86.48,38.48,129.11-11.5-43.42-24.35-86.48-38.48-129.11Z"/>
  <path class="cls-3" d="m668.81,497.24c10.03,36.03,21.36,71.69,34.01,106.88-10.02-36.03-21.38-71.69-34.01-106.88Z"/>
  <path class="cls-3" d="m722.07,638.19c3.44,19.15,8.22,38.05,14.33,56.53-3.43-19.15-8.24-38.05-14.33-56.53Z"/>
  <path class="cls-3" d="m740.65,633.87c1.91,17.29,5.18,34.43,9.8,51.21-1.9-17.3-5.19-34.43-9.8-51.21Z"/>
  <path class="cls-3" d="m780.34,591.83c-3.61,27.49-5.87,55.16-6.74,82.87,3.62-27.49,5.86-55.16,6.74-82.87Z"/>
  <path class="cls-3" d="m790.35,573.79c-1.37,22.46-1.38,45,0,67.46,1.38-22.46,1.37-45,0-67.46Z"/>
  <path class="cls-3" d="m803.84,615.88c-.95-19.24-3.29-38.41-6.96-57.32.96,19.24,3.27,38.41,6.96,57.32Z"/>
  <path class="cls-3" d="m599.03,512.89c11.34-3.95,22.2-9.22,32.34-15.65-11.33,3.96-22.21,9.21-32.34,15.65Z"/>
  <path class="cls-3" d="m611.79,522.4c10.32-6.36,19.9-13.9,28.52-22.42-10.32,6.37-19.91,13.89-28.52,22.42Z"/>
  <path class="cls-3" d="m619.53,530.27c10.96-6.27,21.21-13.75,30.55-22.25-10.95,6.28-21.22,13.74-30.55,22.25Z"/>
  <path class="cls-3" d="m569.25,516.07c7.38-.38,14.67-1.44,21.85-3.18-7.38.38-14.67,1.44-21.85,3.18Z"/>
  <path class="cls-3" d="m564.89,532.01c10.94-2.54,21.79-5.76,32.34-9.61-10.94,2.54-21.79,5.76-32.34,9.61Z"/>
  <path class="cls-3" d="m564.89,539.51c13.05-3.44,26-7.57,38.64-12.31-13.05,3.44-26,7.57-38.64,12.31Z"/>
  <path class="cls-3" d="m764.11,591.83c-.67,20.69-.67,41.53,0,62.23.67-20.7.67-41.53,0-62.23Z"/>
  <path class="cls-3" d="m754.81,601.39c-.62,8.97.12,18.03,2.24,26.77.63-8.97-.13-18.02-2.24-26.77Z"/>
  <path class="cls-3" d="m736.4,595.12c2.77,14.69,6.88,29.13,12.29,43.06-2.76-14.69-6.89-29.12-12.29-43.06Z"/>
  <path class="cls-3" d="m720.12,597.36c5.53,21.68,12.38,43.01,20.52,63.85-5.52-21.68-12.39-43.01-20.52-63.85Z"/>
  <path class="cls-3" d="m769.19,533.35c2.98,18.24,7.3,36.26,12.95,53.86-2.97-18.24-7.31-36.26-12.95-53.86Z"/>
  <path class="cls-3" d="m769.19,629.29c1.42-15.9,2.18-31.95,2.26-47.92-1.42,15.9-2.18,31.96-2.26,47.92Z"/>
  <path class="cls-3" d="m798.42,547.53c-2.02-16.33-4.72-32.67-8.07-48.78,2.02,16.33,4.72,32.66,8.07,48.78Z"/>
  <path class="cls-3" d="m507.25,530.27c16.38-.35,32.84-1.38,49.13-3.07-16.38.35-32.83,1.38-49.13,3.07Z"/>
  <path class="cls-3" d="m519.51,522.66c9.77-.81,19.54-2.3,29.1-4.46-9.77.81-19.54,2.3-29.1,4.46Z"/>
  <path class="cls-3" d="m501.45,525.35c-8.06-.68-16.13-.69-24.19,0,8.06.69,16.13.68,24.19,0Z"/>
  <path class="cls-3" d="m460.78,532.68c6.21,1.92,12.56,3.18,19.03,3.76-6.21-1.93-12.56-3.18-19.03-3.76Z"/>
  <path class="cls-3" d="m412.46,489.41c2.73,7.54,6.08,14.81,10.07,21.78-2.73-7.55-6.09-14.81-10.07-21.78Z"/>
  <path class="cls-3" d="m419.98,479.04c2.33,9.83,5.34,19.56,8.97,28.98-2.33-9.83-5.34-19.56-8.97-28.98Z"/>
  <path class="cls-3" d="m412.46,479.04c2.35-12.61,4.04-25.41,5.03-38.2-2.35,12.61-4.04,25.41-5.03,38.2Z"/>
  <path class="cls-3" d="m428.94,411.07c-2.81,14.13-4.96,28.47-6.42,42.8,2.81-14.13,4.96-28.47,6.42-42.8Z"/>
  <path class="cls-3" d="m417.5,429.03c2.34-15.12,4.03-30.43,5.03-45.7-2.34,15.12-4.03,30.43-5.03,45.7Z"/>
  <path class="cls-3" d="m446.75,353.47c-5.62,16.05-10.63,32.41-14.97,48.85,5.62-16.05,10.63-32.4,14.97-48.85Z"/>
  <path class="cls-3" d="m436.87,353.75c-3.28,8.37-5.95,17.05-7.93,25.82,3.28-8.37,5.95-17.05,7.93-25.82Z"/>
  <path class="cls-3" d="m443.38,346.82c5.54-5.19,10.59-10.84,15.1-16.95-5.55,5.19-10.58,10.84-15.1,16.95Z"/>
  <path class="cls-3" d="m473.58,321.27c-7.49,12.58-14.42,25.58-20.7,38.81,7.48-12.58,14.42-25.58,20.7-38.81Z"/>
  <path class="cls-3" d="m473.58,294.82c-11.92,12.58-23.41,25.69-34.32,39.16,11.92-12.58,23.41-25.7,34.32-39.16Z"/>
  <path class="cls-3" d="m425.74,360.08c2.68-7.39,4.69-14.96,6.05-22.71-2.68,7.39-4.7,14.96-6.05,22.71Z"/>
  <path class="cls-3" d="m482.53,305.18c-7.27,4.15-14.24,8.93-20.74,14.2,7.27-4.15,14.24-8.93,20.74-14.2Z"/>
  <path class="cls-3" d="m511.49,297.69c-11.75,6.64-23.22,13.91-34.23,21.69,11.74-6.64,23.22-13.9,34.23-21.69Z"/>
  <path class="cls-3" d="m501.45,260.03c-12.6,11.08-24.83,22.73-36.51,34.79,12.61-11.08,24.84-22.73,36.51-34.79Z"/>
  <rect class="cls-3" x="473.66" y="289.71" width="25.59" height="1" transform="translate(-42.5 492.87) rotate(-51.78)"/>
  <path class="cls-3" d="m511.49,285.11c7.68.92,15.4,1.17,23.12.72-7.68-.93-15.4-1.16-23.12-.72Z"/>
  <path class="cls-3" d="m548.61,268.45c-15.81,2.33-31.6,5.33-47.16,8.98,15.81-2.33,31.61-5.33,47.16-8.98Z"/>
  <path class="cls-3" d="m550.91,279.53c8.05,9.01,16.65,17.61,25.67,25.65-8.05-9.01-16.66-17.61-25.67-25.65Z"/>
  <path class="cls-3" d="m583.61,281.77c-8.63-7.76-17.76-15.04-27.24-21.73,8.63,7.76,17.76,15.04,27.24,21.73Z"/>
  <path class="cls-2" d="m675.63,177.12c-.2,7.26,1.72,14.52,5.51,20.72.21-7.26-1.73-14.52-5.51-20.72Z"/>
  <path class="cls-2" d="m685.82,187.48c-1.42,7.81-.72,15.95,1.98,23.41,1.41-7.81.73-15.95-1.98-23.41Z"/>
  <path class="cls-2" d="m718.68,240.39c-3.65,5.07-5.53,11.32-5.23,17.57,3.67-5.07,5.51-11.33,5.23-17.57Z"/>
  <path class="cls-2" d="m591.1,253.6c5.17,3,10.62,5.38,16.34,7.12-5.17-3-10.62-5.38-16.34-7.12Z"/>
  <path class="cls-2" d="m655.18,253.6c-7.27-5.1-15.33-9.04-23.8-11.67,7.27,5.09,15.32,9.05,23.8,11.67Z"/>
  <path class="cls-2" d="m649.25,262.95c-5.72-4.32-12.27-7.5-19.2-9.35,5.73,4.31,12.27,7.51,19.2,9.35Z"/>
  <path class="cls-2" d="m747.18,272.94c5.55,7,12.17,13.15,19.59,18.13-5.54-7.01-12.18-13.14-19.59-18.13Z"/>
  <path class="cls-2" d="m778.43,329.88c-5.03-4.06-10.93-7-17.2-8.6,5.04,4.05,10.93,7.01,17.2,8.6Z"/>
  <path class="cls-2" d="m815.25,337.07c-7.31-8.91-15.69-16.92-24.9-23.85,7.32,8.9,15.68,16.93,24.9,23.85Z"/>
  <path class="cls-2" d="m803.84,313.23c-5.75-7.1-12.56-13.34-20.16-18.41,5.74,7.11,12.56,13.33,20.16,18.41Z"/>
  <path class="cls-2" d="m807.88,376.18c-6.87-13.73-14.98-26.82-24.19-39.11,6.88,13.72,14.97,26.83,24.19,39.11Z"/>
</svg>