<?xml version="1.0" encoding="UTF-8"?>
<svg id="Layer_4" data-name="Layer 4" xmlns="http://www.w3.org/2000/svg" viewBox="0 0 1443.13 1080">
  <defs>
    <style>
      .cls-1 {
        stroke: #fff;
        stroke-miterlimit: 10;
        stroke-width: 2px;
      }

      .cls-1, .cls-2 {
        fill: #fff;
      }

      .cls-3 {
        fill: #221f20;
      }

      .cls-3, .cls-2 {
        stroke-width: 0px;
      }
    </style>
  </defs>
  <path class="cls-3" d="m659.42,217.72l-41.35-3.28s-95.87,44.42-112.94,86.31c0,0-15.82,36.39-16.75,40.53-.78,3.45-26.77,184.69-35.29,244.18-1.8,12.56-2.75,25.21-2.84,37.9-.15,20.41-.28,50.44.16,55.53.68,7.84,9.9,72.88,9.9,72.88l18.24,20.02,5-94.4c1.76-33.24,11.66-65.65,29.5-93.75,9.93-15.65,21.87-29.73,34.66-34.72,0,0,64.5-32.84,128.12,60.63s34.64,215.39,34.64,215.39l-18.26,67.09,10.62,58.23,82.17-227.62s53.62-53.96,53.63-59.69-45.63,140.57-45.63,140.57l7.27,66.53s71.65-204.72,72.13-223.05c1.29-48.6-3.04-67.03-6.72-106.98-6.32-68.54-7.99-147.8-14.24-164.17-11.05-28.91-18.96-103.55-18.96-103.55l-67.91-203.96-3.42,187.14-33.96,15.92-90.2-134.08,45.77,138.85-21.42,35.38-7.98,23.76-3.52,10.46-71.3,32.33-13.22,15.49,54.76,33.82-4.56-20.21,18.58,17.83-6.62-27.48,28.67,9.94,5.18-27.47,9.99,9.53,4.5-19.61,18.71,8.26,4.51-17.92,15.52,22.52-75.38,59.93s26.91,6.97,36.64,3.05,25.1-8.95,25.1-8.95c0,0,9.84,37.26-1.88,46.07,0,0-78.6,20.57-149.93,23.27-25.3.96-46.54-19.12-46.85-44.44-.43-34.91,5.67-83.48,37.12-117,0,0,27.7-42.85,77.4-50.46h3.16c11.49,0,22.43,4.91,30.07,13.5l17.13,19.26-7.72-109.3Z"/>
  <g>
    <path class="cls-2" d="m966.87,619.71c.74,5.5.61,9.95-.76,12.72,0,0,.33-5.01.76-12.72.46-8.28,1.03-19.67,1.42-31.33.69-20.29.86-41.4-.98-48.38-3.89-14.71-14.55-94.9-30.51-97.29l-36.35-67.33s15.81-4.29,41.71,28.3l39.31,51.93-31.97-65.78-32.29-45.11-84.74-72.44,33.2,267.72s8.57,28.77,30.35,30.19c21.78,1.41,16.75.87,16.75.87,0,0-28.29-17.47-26.82-64.59.63-19.82,8.75-26.11,12.4-29.1l39.97,62.63s24.88,52.55,28.55,79.71"/>
    <path class="cls-3" d="m967.17,619.67c.58,4.32,1.21,8.82-.54,13.02,0,0-1.22,2.72-1.22,2.72.58-12.11,1.02-27.71,1.36-39.84.37-12.25.54-24.55.27-36.79-.22-5.96-.28-12.16-1.5-17.93-.51-1.98-.98-4.06-1.4-6.06-3.27-16.12-6.18-32.19-9.98-48.06-2.92-11.7-5.86-23.62-11.28-34.34-1.71-3.04-4.09-7.38-7.71-7.24,0,0-.66-1.21-.66-1.21l-18.27-33.61-18.12-33.69s-1.63-3.03-1.63-3.03c1.53-.34,4.16-1.12,5.73-1.04,9.9.27,18.7,6.41,25.87,12.62,5.68,4.96,10.56,10.59,15.24,16.44,1.27,1.29,36.9,50.04,39.31,53.07,0,0-2.54,1.56-2.54,1.56-7.47-15.96-15.9-33.56-23.54-49.55,0,0-7.94-16.47-7.94-16.47l.08.14c-8.03-11.21-24.22-33.93-32.3-45.1-22.83-19.44-61.31-51.48-85.18-71.57,0,0,3.09-1.66,3.09-1.66,5.68,41.9,12.19,91.81,17.54,133.74,5.16,39.52,12.11,94.86,16.97,133.81,0,0-.11-.52-.11-.52.72,2.23,1.72,4.69,2.76,6.85,4.38,9.07,11.18,18.24,21.33,20.65,1.57.36,3.77.56,5.38.64,2.62.18,9.25.6,11.78.75.72.05,2.32.12,3.02.14.01,0,.05,0,0,0l-.21.02s-.15.03-.15.03c-.1.02,0,0-.26.07-1.62-.19-2.81,3.9-1.93,4.13.25.79,1.24,1.54,1.89,1.7,0,0,.11.03.11.03l.12.03s.06.01.05,0h-.03s-.16-.03-.16-.03l-.75-.1c-3.27-2.11-5.95-4.57-8.56-7.35-12.6-13.38-18.67-31.86-19.65-49.92-.47-10.2-.26-20.95,4.34-30.35,2.43-5.15,6.65-9.22,11.14-12.51,11.73,18.62,29.09,46.56,40.81,65.45,8.71,19.42,16.69,39.18,22.78,59.58,2,6.62,3.69,13.9,4.62,20.77,0,0-.59.08-.59.08-1.11-6.97-3.19-13.73-5.35-20.44-6.68-20.08-15.32-39.51-24.35-58.62-10.93-16.67-29.41-44.83-40.52-62.04,0,0,3.51.56,3.51.56-3.32,2.62-5.8,5.58-7.6,9.33-3.57,7.41-3.9,16.48-3.6,24.65,0,0,.02,1.61.02,1.61,0,0,.15,1.6.15,1.6,1.27,18.83,8.51,38.05,23.23,50.35.77.61,1.66,1.29,2.33,1.72l-1.28-.44s.33.04.33.04l.21.03.17.03.18.04.14.04c.17.06-.17-.08.41.15.65.27,1.29.95,1.54,1.57.88.24-.32,4.33-1.95,4.15-.8.24-1.64.1-2.44.1-5.4-.27-12.65-.6-18.04-1.11-14.68-2.12-24.42-15.35-29.6-28.16-.55-1.36-1.05-2.72-1.52-4.23-2.76-22.41-5.57-44.81-8.22-67.23-7.82-65.36-16.97-140.61-24.24-205.77,25.46,22.39,62.62,54.46,87.94,76.48,8.04,11.4,24.28,33.9,32.36,45.26,3.98,8.23,12.11,24.62,16.15,32.81,5.38,10.94,10.88,21.82,16.31,32.73,0,0-2.54,1.56-2.54,1.56-2.39-3.1-39.25-50.73-40.43-52.13-8.79-10.37-20.8-23.3-34.43-26.25-1.41-.3-2.94-.39-4.28-.2,0,0,1.63-3.8,1.63-3.8,9.12,16.79,27.33,50.5,36.31,67.35,0,0-1.9-1.33-1.9-1.33,15.21,2.04,23.55,55.82,26.47,69.69,1.49,8.07,2.84,16.17,4.34,24.18.76,4.05,1.94,8.25,2.09,12.31,1.08,20.44-.46,41.21-1.69,61.61-.34,6.05-1.2,18.47-1.72,24.53,0,0-1.1-.29-1.1-.29.91-1.79,1.2-3.94,1.28-6.04.08-2.12-.07-4.26-.3-6.38l.59-.08h0Z"/>
  </g>
  <polygon class="cls-3" points="762.98 242.76 659.42 217.72 661.34 311.53 761.15 255.47 762.98 242.76"/>
  <polygon class="cls-2" points="694.53 335.52 755.97 296.83 741.39 339.31 694.53 335.52"/>
  <path class="cls-3" d="m728.9,313.88c2.1,1.08,3.7,2.46,5.13,3.94,1.42,1.49,2.63,3.1,3.68,4.82,1.04,1.72,1.91,3.54,2.57,5.49.65,1.96,1.13,4.01,1.1,6.38-2.11-1.07-3.7-2.46-5.14-3.94-1.42-1.49-2.63-3.1-3.67-4.83-1.04-1.72-1.9-3.55-2.57-5.49-.64-1.96-1.13-4.01-1.11-6.38Z"/>
  <polygon class="cls-1" points="773.36 125.12 812.13 236.86 774.43 247.23 791.92 221.29 780.49 213.7 794.35 210.59 773.26 186.62 780.49 183.76 773.36 125.12"/>
  <polygon class="cls-1" points="659.42 186 715.6 270.84 691.14 287.72 697.13 262.24 687 258.4 696.17 252.78 674.93 237.37 679.41 233.4 659.42 186"/>
  <path class="cls-2" d="m659.42,318.34s6.23-10.12,6.23-10.12c0,.03,16.82-14.3,16.84-14.28,0,0-.14.43-.14.43l-4.79-18.85c-4.56-18.29-9.55-38.45-13.7-56.72,4.95,18.05,10.05,38.23,14.66,56.48,0,0,4.67,18.88,4.67,18.88,0,0,.07.26.07.26l-.21.17c.01-.09-17.24,14.1-17.04,13.85,0,0-6.58,9.89-6.58,9.89h0Z"/>
  <path class="cls-2" d="m724.39,267.22c8.55-4.06,17.33-7.63,26.29-10.66,2.63-.84,5.26-1.74,7.99-2.23.39-.04.8-.14,1.18,0-.38-.1-.77.05-1.15.14-2.64.78-5.19,1.83-7.76,2.8,0,0-8.8,3.42-8.8,3.42-5.79,2.21-11.87,4.53-17.75,6.51h0Z"/>
  <path class="cls-2" d="m724.39,267.22c-8.99-12.91-17.49-26.28-25.35-39.92,9,12.91,17.49,26.28,25.35,39.92h0Z"/>
</svg>